# xmcd
#
# Track frame offsets: 
#        150
#        13467
#        30476
#        45353
#        66395
#        79127
#        93558
#        105781
#        120282
#        140837
#        152016
#        164817
#        177138
#        187689
#        202998
#        215253
#        227400
#        239623
#        251338
#        262252
#
# Disc length: 3646 seconds
#
# Revision: 0
# Processed by: cddbd v1.5.2PL0 Copyright (c) Steve Scherf et al.
# Submitted via: ExactAudioCopy v1.0b1
#
DISCID=0a0e3c14
DTITLE=Nancy Wilson - Son Of A Preacher Man - Hurt So Bad
DYEAR=1969
DGENRE=Soul
TTITLE0=Son Of A Preacher Man
TTITLE1=By The Time I Get To Phoenix
TTITLE2=Mr Walker, It's All Over
TTITLE3=I Made You This Way
TTITLE4=Almost Persuaded
TTITLE5=Got It Together
TTITLE6=Make The World Go Away
TTITLE7=Husbands And Wives
TTITLE8=Little Green Apples
TTITLE9=Trouble In Mind
TTITLE10=Willie And Laura Mae Jones
TTITLE11=Let's Make The Most Of A Beatiful Thing
TTITLE12=You're All I Need To Get By
TTITLE13=Can't Take My Eyes Off You
TTITLE14=Hurt So Bad
TTITLE15=Spinning Wheel
TTITLE16=Do You Know Why
TTITLE17=Come Back To Me
TTITLE18=Ages Ago
TTITLE19=One Soft Night
EXTD=
EXTT0=
EXTT1=
EXTT2=
EXTT3=
EXTT4=
EXTT5=
EXTT6=
EXTT7=
EXTT8=
EXTT9=
EXTT10=
EXTT11=
EXTT12=
EXTT13=
EXTT14=
EXTT15=
EXTT16=
EXTT17=
EXTT18=
EXTT19=
PLAYORDER=
